<svg xmlns="http://www.w3.org/2000/svg" viewBox="0 0 231.78 130.59">
    <title>android-robot-logo</title>
    <path
        d="M317.95,288.52a9.65,9.65,0,1,1,9.65-9.65,9.65,9.65,0,0,1-9.65,9.65m-106.68,0a9.65,9.65,0,1,1,9.65-9.65,9.65,9.65,0,0,1-9.65,9.65m110.14-58.14L340.7,197a4,4,0,1,0-6.95-4h0l-19.53,33.83a121.25,121.25,0,0,0-99.21,0L195.47,193a4,4,0,0,0-7,4h0l19.29,33.41a113.89,113.89,0,0,0-59.09,91.16H380.5a113.9,113.9,0,0,0-59.09-91.16"
        transform="translate(-148.72 -190.95)" style="fill:#3ddc84" />
</svg>